<svg width="200" height="43" viewBox="0 0 200 43" fill="none" xmlns="http://www.w3.org/2000/svg">
<path d="M18.7154 0.417969C8.45194 0.417969 0.131836 8.48482 0.131836 18.4355C0.131836 25.16 3.93242 31.0237 9.564 34.1193C9.74001 38.8738 13.7681 42.6763 18.7154 42.6763C23.6621 42.6763 27.6901 38.8738 27.866 34.1193C33.4976 31.0237 37.2982 25.16 37.2982 18.4355C37.2982 8.48482 28.978 0.417969 18.7154 0.417969ZM27.7153 18.585L23.9037 30.1631C23.677 30.8518 22.9344 31.2271 22.2456 30.9995C21.5569 30.7728 21.182 30.0306 21.4095 29.3414L23.9782 21.5362L19.4706 24.7138C19.0164 25.0336 18.4109 25.0336 17.9575 24.7138L13.4499 21.5366L16.0188 29.3426C16.2463 30.0317 15.8713 30.774 15.1827 31.0006C15.0463 31.0453 14.9076 31.0668 14.7713 31.0668C14.2196 31.0668 13.706 30.7165 13.5244 30.1637L9.71351 18.5858C9.53608 18.0475 9.72386 17.4567 10.1788 17.1194C10.6345 16.7823 11.2544 16.775 11.7173 17.1015L18.7136 22.0332L25.7107 17.1007C26.1736 16.7746 26.7935 16.7813 27.2491 17.119C27.7043 17.4558 27.8922 18.0468 27.7153 18.585Z" fill="url(#paint0_radial_194_889)"/>
<path d="M48.873 12.0088H51.6931L58.2654 21.9184H58.3684L64.9407 12.0088H67.7608V31.0773H64.0609V23.652L64.1386 18.9688H64.0347L58.7305 27.2222H57.903L52.5989 18.9688H52.4952L52.5989 23.652V31.0775H48.873V12.0088Z" fill="white"/>
<path d="M71.28 15.1456C70.9306 14.9431 70.657 14.6669 70.4581 14.3174C70.2599 13.9682 70.1609 13.5866 70.1609 13.1725C70.1609 12.7587 70.2599 12.379 70.4581 12.0344C70.657 11.6896 70.9306 11.4176 71.28 11.2192C71.6288 11.0211 72.0148 10.9219 72.4373 10.9219C72.8518 10.9219 73.2315 11.0209 73.5763 11.2192C73.9211 11.4177 74.1929 11.6896 74.391 12.0344C74.5891 12.3792 74.6891 12.7587 74.6891 13.1725C74.6891 13.5866 74.5891 13.9682 74.391 14.3174C74.1929 14.6669 73.9211 14.9433 73.5763 15.1456C73.2315 15.348 72.8518 15.4496 72.4373 15.4496C72.0148 15.4496 71.6288 15.3481 71.28 15.1456ZM70.6396 17.2088H74.2105V31.077H70.6396V17.2088Z" fill="white"/>
<path d="M76.7489 17.2089H80.2158V18.9942H80.2934C80.7333 18.3562 81.3237 17.8643 82.0656 17.5195C82.8075 17.1747 83.6222 17.002 84.5108 17.002C85.4762 17.002 86.3068 17.2239 87.0012 17.6682C87.6956 18.1125 88.221 18.716 88.5794 19.4793C88.9376 20.2426 89.1168 21.0986 89.1168 22.0472V31.0771H85.546V22.8237C85.546 21.9181 85.3241 21.2258 84.8794 20.7471C84.4355 20.2684 83.8205 20.0295 83.0358 20.0295C82.5182 20.0295 82.0545 20.1393 81.6455 20.3592C81.2358 20.5792 80.9124 20.9006 80.6753 21.3231C80.4377 21.7458 80.3195 22.2544 80.3195 22.8495V31.0772H76.7488L76.7489 17.2089Z" fill="white"/>
<path d="M102.407 30.3019C101.941 29.9392 101.639 29.5254 101.501 29.0599H101.385C100.824 29.7586 100.16 30.3039 99.3927 30.6962C98.6247 31.0886 97.7964 31.2846 96.9086 31.2846C95.8561 31.2846 94.8597 31.0088 93.9205 30.4567C92.9805 29.905 92.2236 29.0918 91.6498 28.0183C91.076 26.9443 90.7937 25.6619 90.8024 24.1698C90.7937 22.6778 91.076 21.3906 91.6498 20.3078C92.2236 19.2258 92.9845 18.402 93.9333 17.8371C94.8819 17.2721 95.8997 16.9855 96.9863 16.9768C97.7361 16.9768 98.4375 17.1084 99.0884 17.3712C99.7399 17.6343 100.328 18.0116 100.854 18.5033H100.945V11.1553H104.515V26.5499C104.524 26.9035 104.563 27.1838 104.632 27.391C104.701 27.5979 104.813 27.766 104.968 27.8955C105.123 28.0248 105.344 28.1457 105.628 28.2579L104.36 31.2847C103.524 30.9918 102.872 30.6636 102.407 30.3019ZM99.4705 27.727C99.9872 27.3736 100.393 26.8845 100.686 26.2588C100.98 25.6339 101.126 24.9202 101.126 24.118C101.126 23.2815 100.982 22.5526 100.693 21.9316C100.403 21.3106 100.002 20.8366 99.4893 20.5085C98.9764 20.1811 98.4002 20.0214 97.7622 20.0302C97.0892 20.0302 96.4926 20.1962 95.9709 20.5279C95.4485 20.8601 95.0436 21.3364 94.7542 21.9574C94.4657 22.5784 94.3214 23.2989 94.3214 24.118C94.3214 24.9202 94.4633 25.6339 94.7479 26.2588C95.0324 26.8845 95.4334 27.3736 95.9511 27.727C96.4686 28.0809 97.0552 28.2578 97.7108 28.2578C98.3663 28.2578 98.9529 28.0809 99.4705 27.727Z" fill="white"/>
<path d="M105.972 17.2094H108.378V15.5017C108.378 14.5703 108.555 13.7556 108.908 13.0569C109.263 12.3583 109.797 11.8149 110.513 11.4269C111.228 11.0386 112.113 10.8447 113.166 10.8447C113.613 10.8447 114.071 10.8793 114.537 10.9482C115.002 11.0171 115.416 11.1205 115.778 11.2584L114.588 14.1823C114.2 14.027 113.846 13.9493 113.527 13.9493C113.044 13.9493 112.652 14.0983 112.35 14.3956C112.048 14.6932 111.897 15.1311 111.897 15.7089V17.2093H115.313V20.1071H111.897V31.0775H108.378V20.1071H105.972V17.2094Z" fill="white"/>
<path d="M135.059 30.288C133.942 29.6588 133.061 28.7983 132.413 27.7069C131.766 26.6164 131.443 25.4106 131.443 24.0914C131.443 22.7717 131.766 21.5709 132.413 20.4881C133.061 19.4062 133.933 18.5542 135.033 17.9332C136.133 17.3122 137.334 17.002 138.636 17.002C139.412 17.002 140.175 17.1165 140.926 17.3446C141.676 17.5734 142.345 17.8904 142.931 18.2954L141.611 21.1933C141.232 20.8571 140.788 20.5963 140.279 20.4108C139.77 20.2253 139.24 20.1326 138.687 20.1326C137.946 20.1326 137.286 20.3071 136.708 20.6566C136.13 21.0058 135.682 21.4801 135.363 22.0797C135.044 22.6789 134.884 23.3493 134.884 24.0912C134.884 24.8331 135.048 25.51 135.376 26.1223C135.703 26.7344 136.158 27.2172 136.741 27.5711C137.323 27.9247 137.972 28.1014 138.687 28.1014C139.274 28.1014 139.844 28.0042 140.395 27.8106C140.947 27.6163 141.37 27.3768 141.663 27.0925L142.957 30.0421C142.422 30.3957 141.788 30.6825 141.055 30.9021C140.322 31.122 139.55 31.2321 138.74 31.2321C137.403 31.2324 136.176 30.9176 135.059 30.288Z" fill="white"/>
<path d="M148.021 30.6958C147.304 30.3035 146.768 29.7539 146.409 29.0463C146.052 28.3393 145.873 27.5241 145.873 26.6011V20.1069H143.596V17.2091H145.873V13.0693H149.443V17.2091H152.704V20.1069H149.443V26.3942C149.443 26.9894 149.588 27.4313 149.877 27.7203C150.166 28.0095 150.539 28.1538 150.996 28.1538C151.384 28.1538 151.737 28.0679 152.057 27.895L153.221 30.7152C152.514 31.0944 151.651 31.2842 150.633 31.2842C149.608 31.2842 148.737 31.088 148.021 30.6958Z" fill="white"/>
<path d="M156.788 30.3656C155.706 29.7536 154.854 28.9038 154.233 27.8171C153.612 26.7304 153.302 25.4972 153.302 24.1173C153.302 22.7462 153.612 21.5215 154.233 20.4431C154.854 19.3652 155.706 18.5223 156.788 17.9139C157.87 17.3059 159.071 17.002 160.391 17.002C161.727 17.002 162.935 17.304 164.013 17.9075C165.091 18.5115 165.938 19.3545 166.555 20.4368C167.172 21.5191 167.48 22.7462 167.48 24.1173C167.48 25.4972 167.172 26.7329 166.555 27.8235C165.938 28.9149 165.089 29.7641 164.007 30.3722C162.924 30.98 161.719 31.284 160.391 31.284C159.071 31.2838 157.87 30.978 156.788 30.3656ZM162.261 27.6747C162.816 27.3383 163.252 26.8596 163.567 26.2385C163.881 25.618 164.039 24.9104 164.039 24.117C164.039 23.3407 163.885 22.6488 163.579 22.0409C163.274 21.4325 162.846 20.9584 162.299 20.6177C161.751 20.2773 161.124 20.1066 160.417 20.1066C159.718 20.1066 159.091 20.2749 158.535 20.6114C157.978 20.9474 157.541 21.4199 157.221 22.0278C156.902 22.6357 156.742 23.3323 156.742 24.117C156.742 24.9104 156.9 25.618 157.215 26.2385C157.529 26.8596 157.965 27.3383 158.521 27.6747C159.078 28.0112 159.701 28.1794 160.391 28.1794C161.08 28.1794 161.704 28.0112 162.261 27.6747Z" fill="white"/>
<path d="M169.232 17.2087H172.725V19.201H172.803C173.268 18.563 173.855 18.039 174.562 17.6293C175.27 17.2199 176.08 17.0106 176.994 17.002C177.313 17.0106 177.615 17.0408 177.9 17.0927C178.185 17.1442 178.392 17.2005 178.521 17.2607L177.072 20.6761C176.986 20.633 176.837 20.5922 176.626 20.5533C176.414 20.5144 176.192 20.495 175.959 20.495C175.468 20.495 174.98 20.6179 174.498 20.8636C174.014 21.1092 173.612 21.4782 173.288 21.9696C172.965 22.4615 172.803 23.0481 172.803 23.7293V31.0771H169.233V17.2087H169.232Z" fill="white"/>
<path d="M180.936 36.5751C180.418 36.4805 179.992 36.3641 179.655 36.2261L180.923 33.3024C181.139 33.4143 181.378 33.5031 181.641 33.5676C181.903 33.6322 182.147 33.6648 182.372 33.6648C183.355 33.6648 184.036 33.0782 184.416 31.9053L184.635 31.1937L178.905 17.209H182.682L185.476 25.1265L186.252 27.3774H186.356L187.029 25.1265L189.616 17.209H193.342L187.469 32.733C187.185 33.4748 186.882 34.1152 186.563 34.6543C186.244 35.1932 185.748 35.6717 185.075 36.0906C184.402 36.5087 183.527 36.718 182.449 36.718C181.958 36.718 181.453 36.6704 180.936 36.5751Z" fill="white"/>
<path d="M130.047 27.8952C129.892 27.7657 129.779 27.5976 129.71 27.3907C129.641 27.1835 129.603 26.9033 129.595 26.5496V17.208H126.024V18.5031H125.933C125.407 18.0114 124.818 17.6341 124.168 17.371C123.516 17.1082 122.816 16.9766 122.065 16.9766C120.978 16.9853 119.961 17.2718 119.012 17.8369C118.063 18.4017 117.302 19.2256 116.729 20.3076C116.155 21.3904 115.873 22.6776 115.881 24.1696C115.873 25.6617 116.155 26.9441 116.729 28.0181C117.302 29.0916 118.059 29.9048 118.999 30.4565C119.939 31.0086 120.936 31.2844 121.987 31.2844C122.876 31.2844 123.704 31.0882 124.471 30.696C125.238 30.3037 125.903 29.7584 126.463 29.0597H126.58C126.718 29.5252 127.02 29.9391 127.486 30.3017C127.952 30.6635 128.602 30.9916 129.439 31.2845L130.707 28.2577C130.422 28.1453 130.203 28.0244 130.047 27.8952ZM125.765 26.2585C125.472 26.8842 125.066 27.3733 124.549 27.7267C124.031 28.0806 123.445 28.2574 122.789 28.2574C122.134 28.2574 121.547 28.0806 121.031 27.7267C120.513 27.3733 120.112 26.8842 119.827 26.2585C119.542 25.6335 119.4 24.9198 119.4 24.1177C119.4 23.2986 119.545 22.5781 119.834 21.9571C120.122 21.3361 120.528 20.8598 121.05 20.5276C121.571 20.1958 122.169 20.0299 122.842 20.0299C123.48 20.0212 124.055 20.1808 124.568 20.5082C125.082 20.8362 125.483 21.3103 125.771 21.9313C126.06 22.5523 126.205 23.281 126.205 24.1177C126.205 24.9198 126.058 25.6335 125.765 26.2585Z" fill="white"/>
<path d="M195.695 21.4338C195.349 21.2337 195.076 20.959 194.879 20.6083C194.681 20.2584 194.582 19.8649 194.582 19.429C194.582 18.993 194.68 18.5995 194.877 18.2483C195.074 17.8987 195.345 17.6242 195.693 17.4268C196.04 17.2289 196.431 17.1299 196.863 17.1299C197.294 17.1299 197.685 17.2289 198.03 17.4268C198.376 17.6242 198.647 17.8987 198.843 18.2483C199.039 18.5995 199.136 18.9929 199.136 19.429C199.136 19.865 199.039 20.2584 198.843 20.6083C198.647 20.959 198.376 21.2337 198.03 21.4338C197.684 21.6335 197.294 21.7334 196.863 21.7334C196.431 21.7334 196.041 21.6337 195.695 21.4338ZM197.88 21.2C198.181 21.0236 198.418 20.7808 198.591 20.4712C198.762 20.1612 198.849 19.8137 198.849 19.429C198.849 19.0414 198.762 18.6937 198.591 18.3851C198.418 18.076 198.182 17.8346 197.88 17.6606C197.578 17.4863 197.239 17.3991 196.862 17.3991C196.486 17.3991 196.146 17.4863 195.842 17.6606C195.54 17.8346 195.303 18.076 195.132 18.3851C194.961 18.6939 194.875 19.0414 194.875 19.429C194.875 19.8137 194.961 20.1612 195.132 20.4712C195.303 20.7807 195.54 21.0236 195.842 21.2C196.146 21.3765 196.486 21.4643 196.862 21.4643C197.237 21.4645 197.576 21.3765 197.88 21.2ZM196.085 18.2H196.263V18.1938H196.924C197.096 18.1938 197.248 18.2222 197.378 18.2789C197.509 18.3368 197.61 18.4192 197.683 18.5269C197.754 18.6351 197.791 18.7623 197.791 18.9086C197.791 19.0901 197.738 19.2479 197.632 19.3814C197.526 19.5153 197.382 19.606 197.198 19.6552L197.889 20.682H197.553L196.889 19.6917H196.397V20.682H196.085V18.2ZM196.924 19.4226C197.041 19.4226 197.143 19.4012 197.23 19.3584C197.316 19.3156 197.383 19.2576 197.429 19.1844C197.474 19.1111 197.497 19.029 197.497 18.939C197.497 18.7908 197.447 18.6743 197.346 18.59C197.245 18.5051 197.104 18.4627 196.924 18.4627H196.397V19.4226H196.924Z" fill="white"/>
<defs>
<radialGradient id="paint0_radial_194_889" cx="0" cy="0" r="1" gradientUnits="userSpaceOnUse" gradientTransform="translate(18.8099 34.1925) scale(58.2155)">
<stop stop-color="#4E7EFF"/>
<stop offset="0.0085" stop-color="#4F83FE"/>
<stop offset="0.0816" stop-color="#58A9F7"/>
<stop offset="0.1578" stop-color="#60C8F1"/>
<stop offset="0.2369" stop-color="#66E0EC"/>
<stop offset="0.3201" stop-color="#6AF2E9"/>
<stop offset="0.4101" stop-color="#6CFCE7"/>
<stop offset="0.5191" stop-color="#6DFFE6"/>
<stop offset="0.5403" stop-color="#A2FFEF"/>
<stop offset="0.5629" stop-color="#D4FFF8"/>
<stop offset="0.58" stop-color="#F3FFFD"/>
<stop offset="0.5895" stop-color="white"/>
</radialGradient>
</defs>
</svg> 